<svg width="14" height="14" viewBox="0 0 14 14" fill="none" xmlns="http://www.w3.org/2000/svg">
<path fill-rule="evenodd" clip-rule="evenodd" d="M3.11114 0H4.6667V1.4737H9.33329V0H10.8888V1.4737H12.4444C13.3036 1.4737 14 2.13349 14 2.94738V12.5263C14 13.3402 13.3036 14 12.4444 14H1.55556C0.696446 14 0 13.3402 0 12.5263V2.94738C0 2.13349 0.696446 1.4737 1.55556 1.4737H3.11114V0ZM12.4444 5.13309C12.373 5.14932 12.2986 5.15789 12.2222 5.15789H1.77771C1.70136 5.15789 1.627 5.14933 1.55556 5.13312V12.5263H12.4444V5.13309ZM3.11108 6.63158H4.66664V8.10526H3.11108V6.63158ZM4.66664 9.57894H3.11108V11.0526H4.66664V9.57894ZM6.22217 6.63158H7.77772V8.10526H6.22217V6.63158ZM7.77772 9.57894H6.22217V11.0526H7.77772V9.57894ZM9.33325 6.63158H10.8888V8.10526H9.33325V6.63158ZM10.8888 9.57894H9.33325V11.0526H10.8888V9.57894Z" fill="#444B59"/>
</svg>
