<svg width="10" height="10" viewBox="0 0 10 10" fill="none" xmlns="http://www.w3.org/2000/svg">
<path d="M0.5 4.94995C0.5 4.53574 0.835786 4.19995 1.25 4.19995L8.75 4.19995C9.16421 4.19995 9.5 4.53574 9.5 4.94995C9.5 5.36417 9.16421 5.69995 8.75 5.69995L1.25 5.69995C0.835786 5.69995 0.5 5.36416 0.5 4.94995Z" fill="white"/>
<path d="M4.9502 0.5C5.36441 0.5 5.7002 0.835786 5.7002 1.25L5.7002 8.75C5.7002 9.16421 5.36441 9.5 4.9502 9.5C4.53598 9.5 4.2002 9.16421 4.2002 8.75L4.2002 1.25C4.2002 0.835786 4.53598 0.5 4.9502 0.5Z" fill="white"/>
</svg>
