<svg width="10" height="10" viewBox="0 0 10 10" fill="none" xmlns="http://www.w3.org/2000/svg">
<path fill-rule="evenodd" clip-rule="evenodd" d="M1.25 4.19922C0.835787 4.19922 0.5 4.53501 0.5 4.94922C0.5 5.36343 0.835786 5.69922 1.25 5.69922L4.19922 5.69922L4.19922 8.75C4.19922 9.16421 4.535 9.5 4.94922 9.5C5.36343 9.5 5.69922 9.16421 5.69922 8.75L5.69922 5.69922L8.75 5.69922C9.16421 5.69922 9.5 5.36343 9.5 4.94922C9.5 4.53501 9.16421 4.19922 8.75 4.19922L5.69922 4.19922L5.69922 1.25C5.69922 0.835787 5.36343 0.5 4.94922 0.5C4.53501 0.5 4.19922 0.835786 4.19922 1.25L4.19922 4.19922L1.25 4.19922Z" fill="white"/>
</svg>
