<svg width="16" height="16" viewBox="0 0 16 16" fill="none" xmlns="http://www.w3.org/2000/svg">
<path fill-rule="evenodd" clip-rule="evenodd" d="M7.19922 4.25C7.19922 3.83579 7.53501 3.5 7.94922 3.5C8.36343 3.5 8.69922 3.83579 8.69922 4.25L8.69922 7.19922L11.75 7.19922C12.1642 7.19922 12.5 7.53501 12.5 7.94922C12.5 8.36343 12.1642 8.69922 11.75 8.69922H8.69922L8.69922 11.75C8.69922 12.1642 8.36343 12.5 7.94922 12.5C7.53501 12.5 7.19922 12.1642 7.19922 11.75L7.19922 8.69922H4.25C3.83579 8.69922 3.5 8.36343 3.5 7.94922C3.5 7.53501 3.83579 7.19922 4.25 7.19922H7.19922L7.19922 4.25Z" fill="#667084"/>
</svg>
