<svg width="157" height="117" viewBox="0 0 157 117" fill="none" xmlns="http://www.w3.org/2000/svg">
<rect width="157" height="122" transform="translate(0 -5)" fill="white"/>
<rect x="4.27539" y="7.07825" width="47.7199" height="19.367" fill="#C4C4C4"/>
<rect x="4" y="28.3042" width="19.9426" height="3.24225" fill="#C4C4C4"/>
<rect x="4" y="-2" width="92.8057" height="4.84176" fill="#585252"/>
<rect x="4" y="47.7578" width="19.9426" height="3.24225" fill="#1092D0"/>
<rect x="4" y="33.1676" width="48.1947" height="3.24225" fill="#C4C4C4"/>
<rect x="4.27539" y="37.9446" width="47.7199" height="3.0261" fill="#DEDDDD"/>
<rect x="4.27539" y="42.7863" width="47.7199" height="3.63132" fill="#DEDDDD"/>
<rect x="54.8159" y="7.07825" width="47.7199" height="19.367" fill="#C4C4C4"/>
<rect x="105.081" y="7.07825" width="47.7199" height="19.367" fill="#C4C4C4"/>
<rect x="54.5405" y="28.3042" width="19.9426" height="3.24225" fill="#C4C4C4"/>
<rect x="104.805" y="28.3042" width="19.9426" height="3.24225" fill="#C4C4C4"/>
<rect x="54.5405" y="47.7578" width="19.9426" height="3.24225" fill="#1092D0"/>
<rect x="104.805" y="47.7578" width="19.9426" height="3.24225" fill="#1092D0"/>
<rect x="54.5405" y="33.1676" width="48.1947" height="3.24225" fill="#C4C4C4"/>
<rect x="104.805" y="33.1676" width="48.1947" height="3.24225" fill="#C4C4C4"/>
<rect x="54.8159" y="37.9446" width="47.7199" height="3.0261" fill="#DEDDDD"/>
<rect x="105.081" y="37.9446" width="47.7199" height="3.0261" fill="#DEDDDD"/>
<rect x="54.8159" y="42.7863" width="47.7199" height="3.63132" fill="#DEDDDD"/>
<rect x="105.081" y="42.7863" width="47.7199" height="3.63132" fill="#DEDDDD"/>
<rect x="4.27539" y="70.0782" width="47.7199" height="19.367" fill="#C4C4C4"/>
<rect x="4" y="91.3042" width="19.9426" height="3.24225" fill="#C4C4C4"/>
<rect x="4" y="110.758" width="19.9426" height="3.24225" fill="#1092D0"/>
<rect x="4" y="96.1676" width="48.1947" height="3.24225" fill="#C4C4C4"/>
<rect x="4.27539" y="100.945" width="47.7199" height="3.0261" fill="#DEDDDD"/>
<rect x="4.27539" y="105.786" width="47.7199" height="3.63132" fill="#DEDDDD"/>
<rect x="54.8159" y="70.0782" width="47.7199" height="19.367" fill="#C4C4C4"/>
<rect x="105.081" y="70.0782" width="47.7199" height="19.367" fill="#C4C4C4"/>
<rect x="54.5405" y="91.3042" width="19.9426" height="3.24225" fill="#C4C4C4"/>
<rect x="104.805" y="91.3042" width="19.9426" height="3.24225" fill="#C4C4C4"/>
<rect x="54.5405" y="110.758" width="19.9426" height="3.24225" fill="#1092D0"/>
<rect x="104.805" y="110.758" width="19.9426" height="3.24225" fill="#1092D0"/>
<rect x="54.5405" y="96.1676" width="48.1947" height="3.24225" fill="#C4C4C4"/>
<rect x="104.805" y="96.1676" width="48.1947" height="3.24225" fill="#C4C4C4"/>
<rect x="54.8159" y="100.945" width="47.7199" height="3.0261" fill="#DEDDDD"/>
<rect x="105.081" y="100.945" width="47.7199" height="3.0261" fill="#DEDDDD"/>
<rect x="54.8159" y="105.786" width="47.7199" height="3.63132" fill="#DEDDDD"/>
<rect x="105.081" y="105.786" width="47.7199" height="3.63132" fill="#DEDDDD"/>
</svg>
