<svg width="159" height="101" viewBox="0 0 159 101" fill="none" xmlns="http://www.w3.org/2000/svg">
<rect width="133" height="51" transform="translate(12.5 25)" fill="white"/>
<rect x="16.731" y="35.708" width="40.0335" height="16.4437" fill="#C4C4C4"/>
<rect x="16.5" y="53.73" width="16.7304" height="2.75286" fill="#C4C4C4"/>
<rect x="16.5" y="28" width="77.8571" height="4.11093" fill="#585252"/>
<rect x="16.5" y="70.2472" width="16.7304" height="2.75286" fill="#1092D0"/>
<rect x="16.5" y="57.8593" width="40.4318" height="2.75286" fill="#C4C4C4"/>
<rect x="16.731" y="61.9152" width="40.0335" height="2.56933" fill="#DEDDDD"/>
<rect x="16.731" y="66.0261" width="40.0335" height="3.0832" fill="#DEDDDD"/>
<rect x="59.1309" y="35.708" width="40.0335" height="16.4437" fill="#C4C4C4"/>
<rect x="101.299" y="35.708" width="40.0335" height="16.4437" fill="#C4C4C4"/>
<rect x="58.8994" y="53.73" width="16.7304" height="2.75286" fill="#C4C4C4"/>
<rect x="101.068" y="53.73" width="16.7304" height="2.75286" fill="#C4C4C4"/>
<rect x="58.8994" y="70.2472" width="16.7304" height="2.75286" fill="#1092D0"/>
<rect x="101.068" y="70.2472" width="16.7304" height="2.75286" fill="#1092D0"/>
<rect x="58.8994" y="57.8593" width="40.4318" height="2.75286" fill="#C4C4C4"/>
<rect x="101.068" y="57.8593" width="40.4318" height="2.75286" fill="#C4C4C4"/>
<rect x="59.1309" y="61.9152" width="40.0335" height="2.56933" fill="#DEDDDD"/>
<rect x="101.299" y="61.9152" width="40.0335" height="2.56933" fill="#DEDDDD"/>
<rect x="59.1309" y="66.0261" width="40.0335" height="3.0832" fill="#DEDDDD"/>
<rect x="101.299" y="66.0261" width="40.0335" height="3.0832" fill="#DEDDDD"/>
</svg>
