<svg width="159" height="101" viewBox="0 0 159 101" fill="none" xmlns="http://www.w3.org/2000/svg">
<rect width="112" height="101" transform="translate(23)" fill="white"/>
<rect x="27" y="13.1786" width="18.6269" height="20.3571" fill="#C4C4C4"/>
<rect x="48.7314" y="13.1786" width="18.6269" height="3.39286" fill="#C4C4C4"/>
<rect x="27" y="3" width="55.8806" height="5.08928" fill="#585252"/>
<rect x="48.7314" y="33.5358" width="18.6269" height="3.39286" fill="#1092D0"/>
<rect x="48.7314" y="18.2679" width="45.0149" height="3.39286" fill="#C4C4C4"/>
<rect x="48.7314" y="23.3572" width="82.2687" height="3.39286" fill="#DEDDDD"/>
<rect x="48.7314" y="28.4464" width="82.2687" height="3.39286" fill="#DEDDDD"/>
<rect x="27" y="43.7142" width="18.6269" height="20.3571" fill="#C4C4C4"/>
<rect x="48.7314" y="43.7142" width="18.6269" height="3.39286" fill="#C4C4C4"/>
<rect x="48.7314" y="64.0714" width="18.6269" height="3.39286" fill="#1092D0"/>
<rect x="48.7314" y="48.8036" width="45.0149" height="3.39286" fill="#C4C4C4"/>
<rect x="48.7314" y="53.8928" width="82.2687" height="3.39286" fill="#DEDDDD"/>
<rect x="48.7314" y="58.9822" width="82.2687" height="3.39286" fill="#DEDDDD"/>
<rect x="27" y="74.25" width="18.6269" height="20.3571" fill="#C4C4C4"/>
<rect x="48.7314" y="74.25" width="18.6269" height="3.39286" fill="#C4C4C4"/>
<rect x="48.7314" y="94.6072" width="18.6269" height="3.39286" fill="#1092D0"/>
<rect x="48.7314" y="79.3392" width="45.0149" height="3.39286" fill="#C4C4C4"/>
<rect x="48.7314" y="84.4286" width="82.2687" height="3.39286" fill="#DEDDDD"/>
<rect x="48.7314" y="89.5178" width="82.2687" height="3.39286" fill="#DEDDDD"/>
</svg>
