<svg width="16" height="15" viewBox="0 0 16 15" fill="none" xmlns="http://www.w3.org/2000/svg">
<path fill-rule="evenodd" clip-rule="evenodd" d="M14.4 1.66667L1.6 1.66667L1.6 10L14.4 10L14.4 1.66667ZM1.6 0C0.716344 0 4.1973e-08 0.746192 9.37493e-08 1.66667L5.62496e-07 10C6.14272e-07 10.9205 0.716345 11.6667 1.6 11.6667L14.4 11.6667C15.2837 11.6667 16 10.9205 16 10L16 1.66667C16 0.746192 15.2837 0 14.4 0L1.6 0Z" fill="#667084"/>
<path fill-rule="evenodd" clip-rule="evenodd" d="M5.49037 13.3334C5.0572 13.3334 4.70605 13.7065 4.70605 14.1667C4.70605 14.6269 5.0572 15 5.49037 15H10.1963C10.6294 15 10.9806 14.6269 10.9806 14.1667C10.9806 13.7065 10.6294 13.3334 10.1963 13.3334H5.49037Z" fill="#667084"/>
</svg>
