<svg width="16" height="16" viewBox="0 0 16 16" fill="none" xmlns="http://www.w3.org/2000/svg">
<path fill-rule="evenodd" clip-rule="evenodd" d="M3.2 6.8C3.2 4.81177 4.81177 3.2 6.8 3.2C8.78822 3.2 10.4 4.81177 10.4 6.8C10.4 8.78822 8.78822 10.4 6.8 10.4C4.81177 10.4 3.2 8.78822 3.2 6.8ZM6.8 2C4.14903 2 2 4.14903 2 6.8C2 9.45097 4.14903 11.6 6.8 11.6C7.90928 11.6 8.93068 11.2237 9.74351 10.5918L12.9758 13.8241C13.2101 14.0584 13.59 14.0584 13.8243 13.8241C14.0586 13.5898 14.0586 13.2099 13.8243 12.9756L10.592 9.74326C11.2238 8.93047 11.6 7.90917 11.6 6.8C11.6 4.14903 9.45097 2 6.8 2Z" fill="#444B59"/>
</svg>
